<svg height="496pt" viewBox="0 0 496 496" width="496pt" xmlns="http://www.w3.org/2000/svg"><path d="m176 368h16v16h-16zm0 0"/><path d="m144 368h16v16h-16zm0 0"/><path d="m112 368h16v16h-16zm0 0"/><path d="m248 0c-42.761719 0-84.800781 11.097656-121.808594 32h-94.191406v94.191406c-20.902344 37.007813-32 79.046875-32 121.808594 0 136.753906 111.246094 248 248 248s248-111.246094 248-248-111.246094-248-248-248zm159.742188 416c-12.09375 11.511719-25.390626 21.777344-39.742188 30.480469v-30.480469zm-167.207032-16v16h111.464844v32h-128v-48h-104c-13.230469 0-24-10.769531-24-24v-24h93.574219l24 16h232.90625c-6.886719 11.351562-14.769531 22.023438-23.441407 32zm-192.535156-288h336v192h-16v-64h-55.433594l39.195313-39.191406-56.570313-56.570313-39.191406 39.195313v-55.433594h-80v120c0 19.566406 14.144531 35.832031 32.734375 39.265625 1.152344 6.222656 3.792969 11.871094 7.472656 16.734375h-168.207031zm182.679688 184.527344c2.625.527344 5.289062.824218 7.953124.824218 10.238282 0 20.488282-3.894531 28.277344-11.695312l29.65625-29.65625h55.433594v48h-104c-6.816406 0-12.945312-2.886719-17.320312-7.472656zm25.320312-48.527344v-41.945312l39.191406-39.191407 33.945313 33.945313-73.535157 73.535156c-4.824218 4.824219-11.203124 7.113281-17.53125 6.96875 10.785157-7.175781 17.929688-19.417969 17.929688-33.3125zm-16 0c0 13.230469-10.769531 24-24 24s-24-10.769531-24-24v-104h48zm-21.574219 104-24-16h-98.425781v-16h304v-176h55.289062c15.765626 31.304688 24.710938 66.617188 24.710938 104s-8.945312 72.695312-24.710938 104zm228.054688-224h-46.480469v-55.046875c18.183594 15.808594 33.929688 34.351563 46.480469 55.046875zm-198.480469-112c29.808594 0 58.289062 5.710938 84.496094 16h-168.984375c26.785156-10.464844 55.449219-16 84.488281-16zm117.367188 32c6.417968 3.777344 12.632812 7.855469 18.632812 12.214844v35.785156h-336v-48zm-349.367188 200c0-29.039062 5.535156-57.703125 16-84.488281v156.488281h48v56c0 22.054688 17.945312 40 40 40h88v32h-32v16h156.496094c-26.199219 10.289062-54.6875 16-84.496094 16-127.921875 0-232-104.078125-232-232zm0 0"/><path d="m64 64h16v16h-16zm0 0"/><path d="m104 64h16v16h-16zm0 0"/><path d="m136 64h16v16h-16zm0 0"/><path d="m224 248c0 4.417969-3.582031 8-8 8s-8-3.582031-8-8 3.582031-8 8-8 8 3.582031 8 8zm0 0"/><path d="m64 128h96v16h-96zm0 0"/><path d="m64 160h96v16h-96zm0 0"/><path d="m144 192h16v16h-16zm0 0"/><path d="m64 192h64v16h-64zm0 0"/></svg>