<svg id="Layer_5" enable-background="new 0 0 64 64" height="512" viewBox="0 0 64 64" width="512" xmlns="http://www.w3.org/2000/svg"><path d="m24.658 45.757 14.756-14.757-1-1 1.429-1.429c2.351 1.531 5.149 2.429 8.157 2.429 8.271 0 15-6.729 15-15s-6.729-15-15-15-15 6.729-15 15c0 3.008.898 5.806 2.429 8.157l-1.429 1.429-1-1-6.088 6.088c-.321-2.636-1.584-5.091-3.586-6.88-2.334-2.083-5.469-3.075-8.604-2.722-5.061.573-9.122 4.668-9.659 9.738-.283 2.679.411 5.353 1.94 7.507l1.997 2.987v.696c0 .884.172 1.727.472 2.506-5.179 2.497-8.472 7.683-8.472 13.494v5h30v-5c0-4.968-2.408-9.478-6.342-12.243zm-6.754 8.924-1.904 1.905-1.904-1.905 1.269-5.713c.21.019.421.032.635.032s.425-.013.635-.032zm-1.904-7.681c-2.757 0-5-2.243-5-5h10c0 2.757-2.243 5-5 5zm0-13c-1.103 0-2-.897-2-2s.897-2 2-2 2 .897 2 2-.897 2-2 2zm32-31c7.168 0 13 5.832 13 13s-5.832 13-13 13-13-5.832-13-13 5.832-13 13-13zm-11.357 22.771c.489.567 1.019 1.097 1.586 1.586l-1.229 1.229-1.586-1.586zm-.057 5.229-13.694 13.694c-.121-.063-.241-.128-.364-.188.3-.779.472-1.622.472-2.506v-.697l1.925-2.886c1.056-1.461 1.72-3.131 1.964-4.892l6.111-6.111zm-27.936 6.183c-1.263-1.78-1.83-3.969-1.599-6.162.438-4.146 3.759-7.493 7.895-7.96.358-.041.713-.061 1.066-.061 2.218 0 4.311.793 5.981 2.286 1.911 1.706 3.007 4.153 3.007 6.714 0 1.896-.587 3.711-1.718 5.276l-1.817 2.724h-4.465v-4.142c1.721-.447 3-1.999 3-3.858 0-2.206-1.794-4-4-4s-4 1.794-4 4c0 1.859 1.279 3.411 3 3.858v4.142h-4.466zm20.35 23.817h-3v-8h-2v8h-16v-8h-2v8h-3v-3c0-5.077 2.903-9.601 7.456-11.744.763.992 1.783 1.774 2.964 2.244l-1.515 6.819 4.095 4.095 4.096-4.095-1.515-6.819c1.18-.47 2.2-1.252 2.964-2.245 4.552 2.144 7.455 6.668 7.455 11.745z"/><path d="m48 27c6.065 0 11-4.935 11-11s-4.935-11-11-11-11 4.935-11 11 4.935 11 11 11zm0-20c4.963 0 9 4.037 9 9s-4.037 9-9 9-9-4.037-9-9 4.037-9 9-9z"/><path d="m46 12.828c0-1.008.82-1.828 1.828-1.828h.344c1.008 0 1.828.82 1.828 1.828 0 .481-.195.953-.535 1.293l-2.465 2.465v2.414h2v-1.586l1.879-1.879c.723-.723 1.121-1.684 1.121-2.707 0-2.11-1.718-3.828-3.828-3.828h-.344c-2.11 0-3.828 1.718-3.828 3.828v1.172h2z"/><path d="m47 21h2v2h-2z"/><path d="m55 37h-6v4h-6v4h-6v18h26v-30h-8zm-6 6v18h-4v-18zm-10 4h4v14h-4zm12 14v-22h4v22zm6-26h4v26h-4z"/><path d="m15 13h2v6h-2z"/><path d="m3.686 17.686h2v6h-2z" transform="matrix(.707 -.707 .707 .707 -13.256 9.375)"/><path d="m24.314 19.687h5.999v2h-5.999z" transform="matrix(.707 -.707 .707 .707 -6.628 25.373)"/></svg>